<svg width="24" height="24" viewBox="0 0 24 24" fill="none" xmlns="http://www.w3.org/2000/svg">
<path d="M11.9999 2.83333C8.32672 2.83333 5.23104 5.37906 4.23421 8.85596C3.34327 9.3925 2.82227 10.426 2.82227 11.6361C2.82227 13.3904 3.89181 14.8129 5.64615 14.8129C5.83338 14.8129 6.01295 14.7386 6.14534 14.6062C6.27774 14.4738 6.35212 14.2942 6.35212 14.107V9.16518C6.35212 8.84043 6.12127 8.58558 5.82264 8.50298C6.85336 5.97419 9.23248 4.2022 11.9999 4.2022C14.7673 4.2022 17.1464 5.97419 18.1771 8.50368C17.8785 8.58628 17.6476 8.84043 17.6476 9.16518V14.107C17.6476 14.2942 17.722 14.4738 17.8544 14.6062C17.9868 14.7386 18.1664 14.8129 18.3536 14.8129C18.5181 14.8129 18.6649 14.7932 18.8167 14.7685C18.5887 16.0858 18.0352 17.0678 17.4712 17.7477C17.1823 18.0986 16.8486 18.41 16.4786 18.6739C16.3736 18.7487 16.2629 18.815 16.1475 18.8723C16.1065 18.892 16.0726 18.9104 16.0592 18.9167H14.7355C14.4814 18.1783 13.6723 17.6368 12.7059 17.6368C11.5361 17.6368 10.5879 18.4275 10.5879 19.4017C10.5879 20.376 11.5361 21.1667 12.7059 21.1667C13.6723 21.1667 14.4814 20.6245 14.7355 19.8868H16.1256C16.3642 19.8868 16.4249 19.8232 16.5668 19.7547C16.708 19.6855 16.8753 19.5917 17.0518 19.4681C17.4048 19.221 17.8319 18.861 18.2435 18.3647C18.9876 17.4681 19.6808 16.1373 19.8538 14.3498C20.6868 13.7963 21.1775 12.8023 21.1775 11.6361C21.1775 10.426 20.6565 9.39321 19.7656 8.85596C18.7687 5.37906 15.673 2.83403 11.9999 2.83403V2.83333Z" fill="#F8F8F8"/>
</svg>
